<?xml version="1.0" encoding="utf-8"?>
<!-- Generator: Adobe Illustrator 16.0.0, SVG Export Plug-In . SVG Version: 6.00 Build 0)  -->
<!DOCTYPE svg PUBLIC "-//W3C//DTD SVG 1.1//EN" "http://www.w3.org/Graphics/SVG/1.1/DTD/svg11.dtd">
<svg version="1.1" id="Isolation_Mode" xmlns="http://www.w3.org/2000/svg" xmlns:xlink="http://www.w3.org/1999/xlink" x="0px"
	 y="0px" width="1080px" height="453px" viewBox="0 0 1080 453" enable-background="new 0 0 1080 453" xml:space="preserve">
<g>
	<path fill="#282828" d="M204.308,238.516c-0.186,3.53-1.151,6.912-2.107,10.308c-0.477,1.655-0.277,2.641,1.387,3.513
		c16.145,8.456,32.912,14.911,51.465,15.143c24.975,0.312,47.024-13.869,55.631-40.231c4.586-14.116,4.517-28.303,2.51-42.776
		c-3.952-28.302-19.02-50.099-39.538-68.844c-5.475-5.001-11.195-9.723-17.269-13.959c-2.227-1.539-2.452-2.945-1.647-5.325
		c2.064-6.234,2.298-4.792-2.862-8.206c-4.254-2.826-8.568-5.531-12.758-8.406c-1.438-0.997-2.353-0.972-3.248,0.474
		c-0.121,0.218-0.287,0.394-0.454,0.57c-5.387,6.489-5.387,6.489-12.461,2.199c-5.284-3.208-10.535-6.49-15.885-9.613
		c-1.762-1.024-2.096-1.841-0.867-3.595c2.073-2.979,4.012-6.082,5.798-9.247c1.123-2.014,2.152-2.435,4.236-1.193
		c4.589,2.721,9.32,5.187,14.033,7.718c1.092,0.602,2.435,1.81,3.062-0.458c0.464-1.569,2.77-3.114-0.265-4.765
		c-5.438-2.951-10.609-6.385-16.047-9.315c-2.49-1.318-2.589-2.524-1.281-4.762c1.591-2.694,2.983-5.55,4.231-8.447
		c0.905-2.06,1.814-2.375,3.809-1.206c5.768,3.355,11.608,6.606,17.534,9.653c2.017,1.046,2.161,2.238,1.483,4.024
		c-0.636,0.83-0.191,1.853-0.562,2.771c-0.881,2.183,0.149,3.464,2.06,4.604c2.782,1.629,5.906,2.678,8.295,4.973
		c0.468,1.123,0.097,2.209-0.474,3.121c-1.869,3.078-0.618,4.846,2.181,6.321c2.348,1.252,4.552,2.785,6.796,4.209
		c2.528,1.625,3.378,1.167,5.418-1.824c1.651-2.409-0.078-3.243-1.644-4.171c-4.146-2.516-8.159-5.216-12.182-7.909
		c-2.891-1.923-5.994-3.49-8.744-5.611c-0.613-0.459-1.857-3.049-0.488-4.984c1.336-3.111,2.826-6.155,3.962-9.347
		c0.872-2.468,1.794-2.693,4.109-1.402c17.049,9.637,33.277,20.45,48.519,32.727c14.838,11.971,29.41,24.303,40.754,39.81
		c18.567,25.341,30.66,53.396,33.732,84.836c2.613,26.938-2.365,52.245-19.089,74.28c-12.406,16.328-29.375,24.26-49.548,26.335
		c-29.271,3.021-55.537-5.853-80.604-19.741c-11.686-6.479-23.178-13.283-32.975-22.529c-9.209-8.739-15.255-19.447-18.279-31.723
		c-1.039-4.142-1.603-8.61,1.604-12.489c5.641-6.866,11.928-7.153,19.433-3.145c6.875,3.655,9.809,9.72,9.961,17.313
		c0.027,2.176-0.082,4.365-0.143,6.541C203.824,235.85,204.544,237.245,204.308,238.516z"/>
	<path fill="#282828" d="M612.933,352.225c-12.536,0.484-25.722-1.483-38.277-6.393c-21.291-8.352-33.142-24.865-38.771-46.393
		c-0.966-3.639-1.432-7.377-2.181-11.076c-0.377-1.867-0.034-2.963,2.161-3.156c11.132-0.982,22.229-2.016,33.342-3.137
		c2.139-0.207,2.646,0.66,3.026,2.544c0.978,4.758,2.431,9.378,4.577,13.768c4.824,9.845,12.517,16.321,23.107,18.995
		c11.94,3.015,23.949,2.856,35.373-1.912c9.954-4.147,16.533-11.385,17.013-22.816c0.31-7.246-2.835-12.618-8.975-16.33
		c-6.75-4.061-14.325-5.898-21.805-7.911c-15.799-4.228-31.894-7.433-46.974-14.06c-17.84-7.842-29.755-20.615-33.413-40.183
		c-3.859-20.707,6.478-42.382,24.816-52.944c11.893-6.84,24.838-9.561,38.291-10.201c12.159-0.557,24.285-0.097,36.177,2.877
		c28.026,7.009,43.604,26.806,45.521,52.735c0.18,2.513-0.352,3.331-2.985,3.417c-10.927,0.317-21.824,0.832-32.732,1.439
		c-2.603,0.168-3.478-0.648-4.049-3.204c-2.004-9.213-5.824-17.753-15.224-21.271c-14.641-5.472-29.525-5.243-43.835,1.527
		c-5.449,2.572-9.009,6.987-9.12,13.411c-0.103,6.509,3.042,11.097,8.54,14.2c8.866,4.994,18.633,7.528,28.396,9.976
		c15.518,3.874,31.243,7.16,45.722,14.329c23.185,11.503,32.318,30.917,30.979,56.083c-1.118,21.211-16.483,41.66-36.674,49.241
		C641.672,350.777,627.963,352.477,612.933,352.225z"/>
	<path fill="#282828" d="M895.07,293.029c0-17.487-0.038-34.973,0.071-52.461c0.011-2.646-0.566-3.672-3.408-3.545
		c-4.853,0.248-9.722-0.01-14.57,0.105c-1.999,0.047-2.786-0.516-2.745-2.645c0.097-8.011,0.129-16.028-0.016-24.021
		c-0.038-2.437,0.984-2.796,3.041-2.745c4.737,0.12,9.469-0.113,14.187,0.101c2.678,0.102,3.612-0.599,3.522-3.419
		c-0.283-7.393,0.183-14.771,0.854-22.16c1.771-19.579,16.362-28.22,31.479-30.538c13.396-2.057,26.598-0.454,39.638,2.975
		c1.907,0.502,2.802,1.137,2.294,3.475c-1.484,6.846-2.74,13.782-3.977,20.713c-0.363,2.059-0.979,2.711-3.296,2.2
		c-5.214-1.152-10.549-1.619-15.909-1.463c-8.499,0.261-12.691,4.103-13.352,12.634c-0.32,4.231-0.075,8.506-0.3,12.745
		c-0.11,2.316,0.831,2.86,2.959,2.807c7.294-0.096,14.581,0.061,21.862-0.096c2.389-0.042,3.153,0.616,3.11,3.047
		c-0.156,7.769-0.133,15.532,0,23.313c0.028,2.336-0.599,3.145-3.03,3.111c-7.061-0.164-14.109,0.095-21.15-0.146
		c-3.146-0.103-3.771,1.016-3.771,3.926c0.11,34.481-0.008,68.987,0.172,103.458c0.026,3.878-1.145,4.608-4.679,4.534
		c-9.705-0.231-19.442-0.201-29.146-0.01c-2.947,0.05-3.942-0.686-3.907-3.794C895.156,327.75,895.07,310.38,895.07,293.029z"/>
	<path fill="#282828" d="M1020.526,158.681c0,6.531,0,12.931,0,19.352c0,8.616,0.116,17.244-0.067,25.863
		c-0.053,2.919,0.619,4.062,3.771,3.94c6.188-0.264,12.389,0,18.577-0.12c2.227-0.051,3.229,0.394,3.2,2.954
		c-0.171,8.003-0.131,16.02-0.025,24.034c0.029,2.192-0.605,2.957-2.875,2.926c-6.561-0.147-13.118,0.031-19.671-0.103
		c-2.222-0.047-2.975,0.666-2.937,2.885c0.267,23.676-0.492,47.337,0.488,71.014c0.268,6.555,4.326,10.134,10.928,9.708
		c3.931-0.249,7.643-1.437,11.271-2.802c1.693-0.657,2.647-0.836,2.905,1.4c0.842,8.334,1.736,16.646,2.703,24.959
		c0.203,1.644-0.675,2.135-1.907,2.561c-15.528,5.513-31.161,7.274-46.867,0.835c-11.751-4.835-15.331-14.937-16.198-26.341
		c-1.65-21.697-0.471-43.459-0.771-65.174c-0.078-5.35-0.109-10.701,0.046-16.029c0.089-2.473-0.769-3.12-3.106-3.016
		c-3.628,0.175-7.287-0.047-10.93,0.08c-2.057,0.065-3.088-0.362-3.063-2.76c0.12-8.257,0.115-16.521-0.004-24.765
		c-0.037-2.153,0.902-2.393,2.604-2.353c3.896,0.075,7.784-0.109,11.653,0.075c2.302,0.108,2.88-0.701,2.844-2.923
		c-0.126-7.524-0.032-15.053-0.066-22.579c-0.02-1.545,0.186-2.682,1.764-3.586c11.481-6.54,22.917-13.179,34.381-19.776
		C1019.455,158.786,1019.854,158.794,1020.526,158.681z"/>
	<path fill="#282828" d="M273.419,383.382c-3.015,0-6.041-0.083-9.071,0.039c-1.744,0.057-2.63-0.28-2.571-2.349
		c0.14-5.197,0.131-10.383,0-15.6c-0.04-1.891,0.8-2.207,2.37-2.179c6.278,0.034,12.583,0.055,18.85-0.027
		c1.824-0.012,2.255,0.714,2.227,2.384c-0.073,5.187-0.102,10.384,0.01,15.6c0.037,1.846-0.751,2.216-2.38,2.171
		C279.705,383.327,276.574,383.382,273.419,383.382z"/>
	<path fill="#282828" d="M276.457,420.588c-0.483,5.124-0.956,10.18-1.375,15.236c-0.143,1.652-0.629,2.271-2.527,1.837
		c-6.104-1.383-12.248-2.664-18.424-3.748c-2.254-0.39-2.64-1.455-2.311-3.433c0.742-4.527,1.401-9.049,2.014-13.603
		c0.215-1.653,0.87-2.247,2.637-1.939c5.823,1.021,11.663,1.874,17.511,2.743C275.742,417.953,277.094,418.456,276.457,420.588z"/>
	<path fill="#282828" d="M197.719,37.971c3.21,1.328,6.667,2.774,10.132,4.217c6.021,2.529,6.095,2.561,3.471,8.626
		c-1.164,2.723-1.248,6.929-3.878,7.752c-2.2,0.698-5.392-1.473-8.048-2.582c-2.98-1.271-7.576-1.28-8.472-3.975
		c-0.756-2.288,1.933-5.722,3.094-8.619c0.538-1.355,1.061-2.709,1.647-4.031C195.99,38.601,196.295,37.715,197.719,37.971z"/>
	<path fill="#282828" d="M303.341,420.766c-8.754,0-8.754,0-8.754-8.777c0-6.615,0-6.615,6.649-6.615
		c2.68,0,5.342,0.128,7.979-0.046c2.292-0.147,2.936,0.779,2.83,2.938c-0.165,3.148-0.237,6.311,0.008,9.417
		c0.208,2.703-0.862,3.341-3.277,3.1C306.981,420.627,305.166,420.766,303.341,420.766z"/>
	<path fill="#282828" d="M323.729,398.035c8.273,0,8.273,0,8.273,8.34c0,5.706-0.005,5.771-5.739,5.697
		c-3.252-0.036-7.356,1.327-9.552-0.537c-2.209-1.883-0.534-6.18-1.217-9.336c-0.731-3.374,0.425-4.693,3.881-4.202
		C320.8,398.2,322.283,398.035,323.729,398.035z"/>
	<path fill="#282828" d="M216.522,27.922c-1.058,3.398-2.128,6.843-3.244,10.28c-0.365,1.139-1.167,0.899-2.039,0.58
		c-3.388-1.242-6.774-2.477-10.193-3.627c-1.293-0.431-1.773-1.113-1.234-2.413c0.191-0.45,0.316-0.909,0.525-1.349
		c1.196-2.594,1.063-7.389,3.22-7.552c3.985-0.312,8.137,1.612,12.211,2.633C216.518,26.65,216.563,27.235,216.522,27.922z"/>
	<path fill="#282828" d="M167.802,20.383c0.815,0.162,1.66,0.302,2.467,0.521c9.367,2.45,9.511,2.907,4.946,11.718
		c-0.678,1.323-1.293,1.578-2.505,1.124c-0.561-0.198-1.141-0.396-1.717-0.577c-8.35-2.738-8.35-2.738-5.316-11.15
		C166.256,21.316,166.86,20.639,167.802,20.383z"/>
	<path fill="#282828" d="M204.308,238.516c-0.881-1.438-1.309-2.806,0.59-3.787C205.042,236.033,205.018,237.318,204.308,238.516z"
		/>
	<path fill="#282828" d="M204.938,432.197c0.688-0.733,1.388-1.483,2.074-2.229C206.985,431.334,207.699,433.386,204.938,432.197z"
		/>
	<path fill="#282828" d="M167.802,20.383c-0.354,0.998-1.078,1.512-2.125,1.636C165.973,20.944,165.634,19.043,167.802,20.383z"/>
	<path fill="#282828" d="M31.454,252.243c3.354,0.339-0.038,2.17,0.69,3.1C31.482,254.404,31.413,253.334,31.454,252.243z"/>
	<path fill="#282828" d="M29.223,185.781c0.139,0.859,2.176,2.106-0.506,2.376C28.532,187.294,28.675,186.491,29.223,185.781z"/>
	<path fill="#282828" d="M31.454,252.243c-4.909-21.21-6.397-42.533-2.738-64.086c0.951-0.641,0.176-1.625,0.506-2.376
		c7.273-34.833,19.69-66.902,49.766-88.832c16.19-11.79,34.826-16.516,54.664-16.962c45.591-0.987,86.063,14.609,123.386,39.2
		c11.267,7.412,17.248,19.485,21.463,32.157c0.163,0.456,0.097,0.974,0.097,1.443c-0.05,3.975,0.739,8.541-3.322,10.906
		c-3.919,2.3-7.761,0-11.258-1.995c-2.952-1.651-5.894-3.4-8.171-6.003c-4.412-5.038-4.658-10.744-0.649-15.926
		c5.706-7.42,4.054-14.309-4.659-18.684c-8.878-4.462-18.477-6.475-28.225-7.89c-13.314-1.926-26.671-2.446-39.777,0.932
		c-20.885,5.367-35.521,18.625-45.463,37.435c-3.638,6.875-6.7,14.048-8.658,21.54c-1.819,6.993-1.068,14.228-0.431,21.35
		c3.289,37.438,22.579,66.368,48.93,91.478c7.739,7.366,16.009,14.147,24.745,20.294c1.907,1.344,2.562,2.365,1.281,4.64
		c-1.976,3.468-3.452,7.217-5.28,10.764c-0.728,1.427-0.523,2.05,0.932,2.727c7.891,3.702,15.764,7.414,23.59,11.256
		c2.037,1.021,2.501-0.045,3.109-1.552c1.934-4.841,4.018-9.603,5.915-14.456c0.701-1.788,1.364-2.431,3.368-1.455
		c9.488,4.572,19.016,9.073,28.6,13.453c2.005,0.938,2.408,1.744,1.484,3.783c-2.603,5.744-5.043,11.556-7.372,17.417
		c-0.836,2.153-1.772,2.672-4,1.839c-7.719-2.841-15.544-5.421-23.259-8.239c-2.088-0.762-3.007-0.549-3.383,1.781
		c-0.467,2.985-1.117,5.945-1.907,8.858c-0.607,2.267-0.121,3.48,2.205,4.39c7.663,3.044,15.188,6.377,22.851,9.429
		c2.279,0.908,3.122,1.734,2.366,4.442c-2.282,8.147-4.245,16.396-6.133,24.638c-0.497,2.198-1.104,2.809-3.345,1.958
		c-9.396-3.573-18.808-7.042-28.272-10.395c-2.004-0.713-2.348-1.762-2.004-3.517c0.956-4.975,1.722-10.012,2.952-14.931
		c0.593-2.363,0.06-3.459-1.958-4.629c-8.698-5.058-17.25-10.364-25.971-15.413c-2.156-1.24-2.955-2.309-1.809-4.797
		c1.33-2.801,3.628-6.311,2.885-8.674c-0.858-2.645-5.229-3.378-8.016-5.013c-1.044-0.631-2.14-1.123-3.215-1.706
		c-6.19-3.283-6.227-3.323-10.134,2.71c-1.813,2.816-5.354,5.669-4.917,8.554c0.459,2.923,4.792,4.399,7.376,6.561
		c1.494,1.235,3.063,2.396,4.592,3.572c5.289,4.081,5.289,4.081,2.056,10.104c-1.517,2.765-2.862,5.632-4.57,8.269
		c-1.48,2.291-1.192,3.33,1.416,4.48c11.828,5.326,23.515,10.911,35.341,16.239c2.3,1.021,2.958,2.114,2.606,4.584
		c-1.457,10.688-2.71,21.387-4.038,32.072c-0.338,1.063-0.561,2.247-2.073,2.229c-22.478-6.087-43.516-15.484-63.311-27.66
		c-38.316-23.575-67.456-55.847-89.036-94.993c-9.381-17.017-16.279-35.133-20.447-54.202
		C31.436,254.413,32.87,253.02,31.454,252.243z M134.534,343.124c-4.57-4.345-9.183-8.629-13.681-13.048
		c-1.522-1.501-2.277-0.428-3.234,0.521c-3.61,3.601-7.153,7.266-10.823,10.81c-1.249,1.182-1.35,1.894-0.02,3.089
		c4.563,4.148,9.069,8.397,13.529,12.673c1.281,1.236,2.258,1.003,3.381-0.155c3.447-3.572,6.936-7.107,10.378-10.698
		c0.571-0.585,0.943-1.347,1.442-2.09C135.163,343.839,134.872,343.447,134.534,343.124z"/>
	<path fill="#282828" d="M788.785,204.936c35.033-1.16,60.428,21.118,68.621,47.234c8.684,27.711,5.044,53.858-14.265,76.533
		c-10.814,12.647-25.095,19.856-41.399,22.345c-22.309,3.412-43.037-1.18-61.133-14.985c-13.265-10.151-20.094-24.272-23.08-40.463
		c-3.399-18.529-2.016-36.427,6.622-53.484c10.711-21.136,28.245-32.603,51.21-36.481c1.785-0.298,3.61-0.588,5.416-0.656
		C783.438,204.862,786.114,204.936,788.785,204.936z M820.661,259.68c-4.395-14.316-16.186-24.045-29.704-24.447
		c-15.936-0.492-28.2,7.301-33.455,22.215c-5.02,14.299-5.005,28.908,0.522,43.076c5.443,14.021,17.659,21.414,33.276,21.008
		c12.065-0.334,23.962-9.681,28.616-22.459c2.429-6.713,3.123-13.672,3.177-20.732C823.201,272.018,822.543,265.756,820.661,259.68z
		"/>
	<path fill="#282828" d="M465.908,288.982c-14.571,0-29.142,0.055-43.724-0.064c-2.584-0.01-3.257,0.691-3.024,3.294
		c1.234,13.649,6.379,24.877,19.915,30.026c12.173,4.647,27.458,2.318,33.096-14.812c1.008-3.04,2.154-3.469,5.089-2.913
		c10.115,1.958,20.308,3.627,30.494,5.232c2.27,0.363,2.877,0.836,1.953,3.146c-8.903,22.454-25.311,35.305-49.193,38.449
		c-11.66,1.551-23.242,0.938-34.632-2.226c-18.596-5.133-31.746-16.813-38.617-34.609c-9.678-25.064-9.692-50.668,1.804-74.982
		c10.544-22.25,28.985-34.231,54.162-34.733c13.116-0.278,25.639,1.587,37.102,8.383c16.436,9.738,25.162,24.704,29.264,42.868
		c2.227,9.896,3.07,19.896,3.07,29.999c0,2.431-0.667,3.017-3.043,2.993C495.052,288.919,480.485,288.982,465.908,288.982z
		 M472.654,266.294c2.455,0.035,3.1-0.653,2.786-3.11c-0.385-3.377-0.842-6.738-1.791-9.985
		c-4.093-13.95-16.595-21.828-30.698-19.63c-14.904,2.322-23.285,16.328-23.207,30.873c0,2.224,1.438,1.795,2.691,1.795
		c8.372,0.005,16.746,0.005,25.115,0.005C455.912,266.24,464.276,266.165,472.654,266.294z"/>
</g>
</svg>
